<svg width="60" height="60" viewBox="0 0 60 60" fill="none" xmlns="http://www.w3.org/2000/svg">
<rect width="60" height="60" fill="white"/>
<path d="M46.7854 24.1689V15.8948C46.7854 13.0724 44.5099 10.7768 41.7123 10.7768H31.5253L26.1133 6H5.07317C2.27548 6 0 8.29559 0 11.118V37.1638C0 39.9862 2.27548 42.2818 5.07317 42.2818H30.6947C32.1679 48.9769 38.0968 54 45.1701 54C53.3474 54 60 47.2886 60 39.0391C60 31.3409 54.2051 24.9837 46.7854 24.1689ZM30.345 38.8698H5.07384C4.14106 38.8698 3.38279 38.1049 3.38279 37.1638V11.118C3.38279 10.177 4.14106 9.412 5.07384 9.412H24.843L30.255 14.1888H41.7129C42.6457 14.1888 43.404 14.9538 43.404 15.8948V24.188C36.1108 25.0663 30.4289 31.3 30.345 38.8698ZM45.1701 50.588C38.8578 50.588 33.7224 45.4072 33.7224 39.0391C33.7224 32.6709 38.8578 27.4901 45.1701 27.4901C51.4825 27.4901 56.6179 32.6709 56.6179 39.0391C56.6179 45.4072 51.4825 50.588 45.1701 50.588ZM45.0944 30.7581C44.1602 30.7581 43.4033 31.5218 43.4033 32.4641V39.5154C43.4033 40.4578 44.1602 41.2214 45.0944 41.2214C46.0285 41.2214 46.7854 40.4578 46.7854 39.5154V32.4641C46.7854 31.5218 46.0285 30.7581 45.0944 30.7581ZM45.0944 42.9274C44.1602 42.9274 43.4033 43.691 43.4033 44.6334V44.7473C43.4033 45.6897 44.1602 46.4533 45.0944 46.4533C46.0285 46.4533 46.7854 45.6897 46.7854 44.7473V44.6334C46.7854 43.691 46.0285 42.9274 45.0944 42.9274Z" fill="black"/>
</svg>
